<?xml version="1.0" standalone="no"?>
<!DOCTYPE svg PUBLIC "-//W3C//DTD SVG 20010904//EN"
 "http://www.w3.org/TR/2001/REC-SVG-20010904/DTD/svg10.dtd">
<svg version="1.0" xmlns="http://www.w3.org/2000/svg"
 width="835.000000pt" height="835.000000pt" viewBox="0 0 835.000000 835.000000"
 preserveAspectRatio="xMidYMid meet">
<metadata>
Created by potrace 1.14, written by Peter Selinger 2001-2017
</metadata>
<g transform="translate(0.000000,835.000000) scale(0.100000,-0.100000)"
fill="#000000" stroke="none">
<path d="M1564 7566 c-13 -10 -23 -11 -31 -4 -9 7 -14 6 -18 -4 -4 -11 -19
-14 -51 -12 -25 2 -42 -1 -39 -5 10 -17 -25 -20 -35 -3 -11 16 -11 16 -6 0 4
-15 -1 -18 -29 -18 -21 0 -35 -5 -35 -12 0 -9 -4 -8 -10 2 -8 13 -10 13 -10
-1 0 -11 -8 -15 -25 -14 -14 2 -25 -2 -25 -9 0 -6 -10 -12 -22 -13 -11 -1 -24
-6 -27 -10 -3 -4 -14 -9 -24 -11 -10 -2 -27 -12 -38 -23 -11 -11 -25 -17 -32
-12 -7 4 -5 -2 3 -12 9 -11 10 -16 2 -11 -15 9 -75 -31 -67 -45 4 -5 -3 -9
-14 -9 -12 0 -20 -6 -19 -12 2 -7 -3 -12 -9 -10 -7 1 -13 -2 -13 -8 0 -15
-102 -110 -111 -104 -5 3 -6 -2 -3 -10 3 -9 1 -16 -6 -16 -6 0 -8 -4 -5 -10 3
-5 1 -10 -5 -10 -6 0 -8 -5 -5 -10 4 -6 1 -9 -7 -8 -7 2 -12 -3 -10 -11 2 -8
-3 -11 -12 -8 -9 4 -15 3 -15 -1 4 -24 -3 -42 -16 -42 -9 0 -15 -9 -15 -25 0
-14 -5 -25 -11 -25 -5 0 -7 -4 -4 -10 3 -5 1 -10 -6 -10 -6 0 -9 -8 -6 -19 3
-14 1 -18 -9 -14 -8 3 -14 -1 -14 -10 0 -8 -6 -18 -12 -20 -10 -4 -10 -6 0 -6
9 -1 6 -8 -7 -22 -11 -12 -17 -27 -14 -35 3 -8 -2 -16 -10 -20 -8 -3 -13 -13
-10 -23 3 -11 -2 -21 -11 -24 -11 -5 -16 -20 -16 -53 0 -33 -4 -45 -13 -41 -8
3 -12 -7 -13 -32 -3 -77 -4 -82 -16 -75 -8 5 -7 0 2 -11 11 -14 12 -17 1 -11
-9 6 -12 5 -9 -5 3 -8 11 -13 17 -11 7 1 10 -2 6 -8 -3 -6 -11 -7 -17 -4 -6 4
-9 1 -6 -7 3 -8 1 -24 -3 -36 -5 -13 -4 -25 1 -28 6 -4 7 -14 2 -23 -12 -26
-6 -205 8 -231 6 -13 9 -25 6 -29 -3 -3 -6 0 -6 6 0 7 -4 12 -8 12 -5 0 -7
-13 -6 -30 2 -26 -2 -30 -22 -30 -15 0 -24 -6 -24 -15 0 -8 -7 -15 -16 -15 -8
0 -12 -4 -9 -10 3 -5 -3 -10 -14 -10 -12 0 -21 -7 -21 -15 0 -8 -3 -14 -7 -14
-20 3 -34 -2 -28 -11 3 -5 -1 -10 -9 -10 -8 0 -18 -5 -22 -12 -5 -7 -3 -8 6
-3 9 5 11 4 6 -3 -4 -7 -16 -12 -27 -12 -11 0 -19 -7 -19 -16 0 -10 -6 -14
-14 -11 -8 3 -13 -1 -12 -11 0 -9 -5 -16 -12 -14 -6 1 -11 -1 -10 -5 4 -16
-14 -53 -23 -48 -5 4 -9 -1 -9 -10 0 -8 -7 -18 -16 -22 -8 -3 -13 -12 -10 -19
3 -8 0 -11 -10 -7 -10 4 -14 -2 -14 -21 0 -14 -5 -26 -11 -26 -5 0 -7 -4 -4
-10 3 -5 -1 -10 -9 -10 -10 0 -13 -6 -10 -15 4 -8 1 -15 -5 -15 -6 0 -11 -11
-11 -25 0 -26 -15 -34 -24 -12 -2 6 -4 3 -4 -8 2 -43 -2 -66 -12 -60 -6 3 -10
2 -10 -4 0 -5 6 -12 13 -14 7 -3 4 -6 -6 -6 -10 -1 -16 -5 -13 -10 9 -15 -5
-42 -18 -34 -6 4 -4 -2 4 -12 9 -11 10 -16 2 -11 -8 5 -12 -1 -13 -21 -1 -15
-1 -31 0 -35 0 -5 -5 -8 -13 -8 -8 0 -12 -9 -11 -25 2 -14 -1 -27 -5 -30 -5
-3 -7 -12 -4 -20 3 -8 2 -20 -2 -27 -11 -17 -14 -34 -18 -87 -1 -25 -8 -47
-14 -49 -19 -6 -14 -22 5 -16 17 5 17 5 0 -6 -15 -10 -17 -25 -16 -116 2 -83
6 -107 18 -115 14 -9 14 -10 1 -6 -12 4 -16 -3 -16 -29 0 -24 3 -30 11 -24 9
7 11 -2 10 -33 -1 -47 4 -69 14 -62 4 2 8 -2 8 -10 0 -8 -4 -12 -8 -10 -4 3
-6 -3 -5 -12 2 -9 8 -19 15 -21 9 -3 9 -8 -1 -20 -11 -13 -11 -14 1 -7 11 6
13 3 8 -14 -4 -16 -2 -21 7 -18 8 3 13 -8 15 -36 1 -23 7 -45 13 -48 6 -4 12
-19 12 -34 1 -14 7 -29 12 -33 6 -4 14 -20 18 -36 6 -23 9 -27 17 -15 6 10 9
3 9 -24 0 -23 4 -36 10 -32 9 5 15 -15 11 -37 -2 -13 17 -9 23 5 3 6 5 -1 3
-18 -1 -21 2 -29 12 -27 8 2 11 -3 8 -13 -4 -9 -1 -15 8 -15 9 0 12 -6 8 -17
-5 -12 -2 -15 10 -10 12 4 15 1 12 -14 -3 -15 0 -19 10 -15 8 3 14 2 14 -2 -4
-24 3 -42 16 -42 8 0 15 -7 15 -15 0 -8 5 -15 10 -15 6 0 10 -11 10 -25 0 -17
5 -25 18 -25 21 0 59 -40 39 -41 -6 0 1 -5 17 -11 21 -8 25 -13 15 -19 -11 -7
-10 -9 4 -9 10 0 15 -4 12 -10 -3 -5 1 -10 9 -10 9 0 16 -4 16 -10 0 -14 37
-50 44 -42 3 3 6 -2 6 -11 0 -10 8 -17 20 -17 13 0 18 -5 14 -15 -4 -8 -1 -15
6 -15 6 0 8 -5 5 -10 -3 -5 -1 -10 4 -10 6 0 11 -7 11 -15 0 -8 5 -15 10 -15
6 0 10 -7 10 -16 0 -8 4 -13 9 -10 11 7 23 -22 15 -36 -3 -5 3 -12 14 -15 14
-3 19 -10 15 -21 -5 -12 -2 -14 12 -8 11 4 16 4 13 0 -4 -4 -3 -15 2 -25 7
-12 6 -19 -2 -21 -7 -3 -2 -13 12 -26 22 -20 22 -22 4 -22 -14 0 -15 -3 -6 -9
7 -4 14 -19 14 -32 1 -13 8 -32 17 -42 12 -15 12 -18 2 -15 -19 4 -19 -45 -1
-69 14 -16 13 -17 -2 -5 -15 12 -17 11 -15 -7 1 -12 5 -21 10 -21 5 0 4 -7 -3
-15 -7 -8 -9 -15 -5 -15 4 0 2 -7 -5 -15 -7 -8 -8 -15 -3 -15 16 0 9 -40 -7
-40 -12 -1 -12 -3 3 -11 9 -6 15 -15 11 -21 -5 -7 -9 -7 -13 0 -4 6 -8 -14 -9
-45 -1 -39 -7 -60 -19 -69 -17 -13 -17 -14 0 -8 9 3 17 2 17 -4 0 -6 -5 -12
-12 -14 -11 -4 -16 -54 -19 -176 -1 -17 -5 -34 -9 -37 -5 -3 -3 -17 4 -30 7
-14 12 -36 11 -49 -2 -14 3 -27 10 -30 8 -3 12 -18 11 -36 -1 -20 3 -34 12
-37 10 -4 11 -8 2 -13 -15 -9 18 -52 34 -44 6 3 2 -2 -8 -10 -17 -14 -18 -16
-3 -16 9 0 16 -3 16 -7 -4 -23 2 -43 12 -43 15 0 38 -31 39 -51 0 -9 7 -19 15
-23 8 -3 14 -9 13 -13 -2 -4 2 -10 7 -12 18 -7 54 -64 48 -75 -4 -6 2 -4 12 4
11 9 16 10 11 3 -4 -8 -1 -13 8 -13 10 0 16 -9 16 -22 0 -17 3 -19 9 -9 7 11
10 11 17 0 5 -8 20 -20 33 -27 19 -11 22 -11 16 0 -3 7 0 5 8 -5 9 -11 29 -19
49 -19 18 -1 38 -8 45 -17 11 -14 12 -14 13 4 0 13 3 16 8 8 4 -7 17 -14 27
-16 11 -1 26 -7 34 -11 10 -6 12 -5 7 2 -10 16 16 15 33 0 10 -9 12 -9 7 -1
-5 8 9 11 49 11 32 -1 50 -5 43 -10 -9 -5 -10 -8 -1 -8 6 0 15 5 18 10 3 6 29
10 56 10 31 0 48 4 44 10 -3 6 -1 10 4 10 6 0 11 -5 11 -11 0 -8 5 -8 15 1 9
8 20 9 28 4 14 -11 34 -10 59 0 10 5 23 6 30 4 7 -3 19 2 26 11 8 9 11 11 7 4
-4 -9 5 -12 29 -11 22 1 33 5 29 12 -3 6 0 5 8 -1 17 -17 32 -17 23 0 -5 7 0
6 11 -3 11 -9 16 -10 11 -2 -9 16 6 16 23 -1 11 -10 13 -9 9 3 -4 11 1 16 16
17 11 0 15 -1 9 -4 -7 -3 -13 -9 -13 -14 0 -11 23 -7 32 6 4 5 53 11 110 12
180 4 342 3 363 -1 11 -3 26 -5 33 -5 7 -1 10 -5 7 -11 -3 -5 -2 -10 4 -10 5
0 12 6 14 13 4 10 6 10 6 0 1 -8 16 -13 39 -13 27 0 33 -3 22 -10 -12 -8 -10
-10 10 -11 14 -1 28 -1 33 0 4 0 7 -4 7 -9 0 -6 5 -10 11 -10 5 0 7 5 3 12 -4
7 -3 8 5 4 6 -4 9 -12 6 -17 -4 -5 -1 -9 5 -9 6 0 8 -5 5 -10 -3 -6 1 -13 9
-16 9 -3 16 -17 16 -31 0 -13 4 -21 10 -18 6 3 10 -3 10 -14 0 -12 6 -21 13
-21 8 0 7 -4 -3 -10 -13 -8 -13 -10 1 -10 9 0 20 -7 23 -16 4 -9 2 -13 -5 -8
-8 4 -7 0 0 -15 7 -11 14 -21 17 -21 3 0 2 5 -2 12 -4 7 -3 8 5 4 9 -6 9 -11
-1 -24 -10 -12 -10 -14 0 -8 8 5 12 0 12 -14 0 -12 5 -18 10 -15 6 3 10 -3 10
-13 0 -11 6 -25 14 -31 8 -7 15 -20 15 -29 2 -44 5 -53 18 -47 11 3 13 -1 8
-15 -5 -14 -2 -20 9 -20 9 0 16 -9 16 -20 0 -12 7 -32 16 -45 9 -14 13 -25 8
-25 -4 0 1 -7 12 -16 10 -8 12 -12 4 -8 -12 6 -12 4 1 -12 9 -10 14 -24 12
-31 -2 -6 1 -15 8 -19 8 -5 9 -3 4 6 -5 9 -4 11 3 6 7 -4 12 -16 12 -26 0 -10
4 -20 9 -22 5 -2 11 -12 13 -23 1 -11 9 -24 15 -30 7 -5 14 -24 15 -42 1 -17
6 -29 10 -27 5 3 5 11 2 17 -4 7 -3 8 2 4 9 -9 10 -13 13 -43 0 -8 6 -12 11
-9 9 5 15 -15 11 -37 0 -5 6 -8 15 -8 8 0 12 -5 9 -11 -4 -6 1 -16 11 -23 9
-7 19 -22 20 -32 2 -10 8 -20 13 -22 6 -2 11 -15 11 -28 0 -13 5 -24 11 -24 5
0 7 6 3 13 -4 7 -3 9 2 4 5 -5 10 -17 10 -28 3 -39 6 -44 14 -24 7 17 9 17 9
3 1 -30 3 -32 28 -56 13 -12 26 -35 28 -50 2 -15 4 -29 4 -32 1 -3 6 2 11 10
8 13 10 12 11 -5 1 -11 1 -24 0 -29 -1 -5 5 -3 14 4 13 11 15 10 10 -2 -3 -8
3 -25 14 -37 12 -13 18 -27 15 -32 -3 -5 3 -6 12 -2 11 4 15 2 11 -4 -4 -6 3
-13 14 -16 12 -3 19 -10 16 -14 -9 -14 8 -34 29 -37 10 -2 20 -8 20 -14 1 -7
2 -17 3 -23 0 -5 5 -8 10 -4 5 3 12 -4 16 -15 4 -11 11 -18 16 -15 5 4 9 -1 9
-9 0 -8 5 -18 12 -22 7 -5 8 -3 3 7 -8 12 -6 12 8 0 9 -7 14 -17 11 -22 -3 -5
1 -9 9 -9 8 0 17 -7 21 -15 3 -8 14 -15 25 -15 14 0 19 -5 15 -15 -4 -11 -2
-13 9 -10 9 4 16 -1 20 -14 3 -14 11 -19 27 -16 16 3 20 0 16 -10 -3 -9 0 -15
8 -15 7 0 19 -6 25 -14 7 -8 21 -12 31 -9 14 4 20 0 20 -11 0 -10 9 -16 24
-16 34 0 57 -10 50 -22 -3 -5 0 -9 7 -7 27 3 50 -1 45 -9 -2 -4 12 -9 32 -10
20 -2 40 -8 44 -15 6 -9 10 -8 18 3 8 13 10 13 10 -1 0 -9 9 -19 20 -22 11 -3
20 0 20 6 0 8 3 8 11 0 6 -6 18 -9 25 -6 9 3 12 0 9 -8 -4 -11 6 -14 42 -13
27 1 54 -4 62 -10 12 -9 13 -8 7 4 -4 9 -1 8 7 -2 15 -19 32 -25 22 -8 -3 6
-1 10 4 10 6 0 11 -4 11 -10 0 -15 97 -13 103 3 4 10 6 10 6 0 1 -7 6 -13 12
-13 5 0 8 4 4 9 -3 5 0 13 6 17 7 4 9 3 5 -4 -3 -6 -2 -13 4 -17 5 -3 10 0 10
8 0 9 9 13 25 12 14 -2 27 1 31 6 3 5 13 5 25 -1 18 -10 23 -6 20 13 -1 4 4 7
11 6 36 -4 59 2 52 14 -6 9 -4 9 8 -1 13 -10 18 -10 24 -1 5 8 3 9 -6 4 -9 -5
-11 -4 -6 3 4 7 18 12 32 12 17 0 23 4 18 12 -5 8 -2 9 9 5 10 -3 17 -2 17 3
0 6 7 10 15 10 8 0 15 5 15 10 0 6 7 10 15 10 8 0 14 3 13 8 -2 4 0 7 3 7 4 0
19 15 35 33 16 17 34 32 41 32 13 0 36 34 28 42 -2 2 9 5 25 6 17 1 30 -2 30
-8 0 -5 5 -10 11 -10 5 0 7 5 4 10 -3 6 4 10 17 10 16 0 19 -3 10 -9 -11 -6
-9 -9 6 -13 14 -4 19 -2 16 6 -3 7 2 13 10 13 8 0 13 -4 10 -8 -2 -4 0 -10 6
-14 5 -3 10 -1 10 4 0 6 5 11 11 11 5 0 7 -6 3 -12 -6 -9 -3 -9 9 0 16 14 55
19 165 21 45 1 61 4 56 13 -4 6 -3 8 4 4 6 -3 14 -2 17 4 5 8 11 7 21 -1 9 -8
14 -8 14 -1 0 6 12 10 28 9 15 -1 26 3 25 9 -1 6 4 11 12 11 8 0 12 -4 9 -8
-2 -4 1 -11 7 -15 8 -4 9 -3 5 5 -8 13 30 30 57 25 19 -3 24 12 5 18 -7 3 5 5
26 6 22 1 43 6 46 12 4 6 16 12 28 13 11 0 18 5 15 10 -3 4 4 11 16 14 12 3
18 10 14 17 -4 6 1 5 10 -3 15 -12 17 -11 17 3 0 9 7 16 15 16 8 0 15 5 15 11
0 8 4 8 14 0 11 -9 13 -6 11 13 -2 15 1 23 8 20 7 -2 23 11 36 29 13 17 21 24
17 14 -3 -11 -2 -16 4 -12 6 3 10 16 10 28 0 18 2 19 10 7 5 -8 10 -13 11 -10
0 3 2 14 4 24 5 23 23 36 44 29 13 -4 13 -3 2 5 -12 9 -12 13 2 26 9 9 15 22
13 29 -1 7 -1 9 1 4 8 -12 23 3 23 23 0 10 5 20 11 22 5 2 12 12 13 23 2 11 9
19 15 18 6 -2 9 9 7 27 -3 22 1 31 17 36 13 4 16 9 8 13 -9 6 -8 11 4 21 12
10 13 16 3 28 -11 13 -10 15 5 9 15 -6 18 -2 17 21 -3 41 -1 54 8 48 4 -2 9 9
10 27 2 17 7 36 12 42 6 7 6 15 -2 23 -8 8 -7 15 4 25 10 10 16 39 17 83 1 40
7 72 14 76 9 6 9 8 0 8 -7 0 -13 5 -13 11 0 5 5 7 12 3 6 -4 8 -3 4 4 -3 5 -3
12 1 15 5 2 3 2 -4 1 -12 -3 -12 50 0 62 3 4 4 -3 2 -15 -2 -12 0 -19 4 -17 4
3 7 209 7 459 -1 388 -3 457 -16 473 -14 18 -14 18 3 5 17 -14 18 -13 15 5 -2
15 4 20 29 22 24 2 30 7 26 19 -5 13 -3 14 15 4 12 -7 22 -8 22 -3 0 5 11 8
25 7 14 -2 28 2 32 7 4 7 1 8 -7 3 -9 -5 -11 -4 -6 4 6 9 11 9 24 -1 13 -11
14 -11 8 1 -6 9 -5 12 5 9 8 -3 13 -11 11 -17 -1 -7 2 -10 8 -6 6 3 8 11 5 16
-6 8 18 11 92 12 12 0 20 4 17 8 -8 14 10 11 25 -4 10 -10 11 -8 5 8 -7 17 -5
18 8 8 8 -7 18 -9 22 -5 4 4 20 8 34 8 50 3 53 4 48 12 -3 5 1 9 9 9 8 0 12
-4 9 -9 -3 -4 5 -8 18 -8 18 0 20 2 8 10 -10 6 4 9 45 10 90 1 96 2 92 14 -4
10 46 16 136 16 20 0 26 3 21 12 -5 8 -1 7 11 -2 10 -8 16 -10 12 -4 -9 16 18
25 32 11 8 -8 11 -8 11 1 0 8 9 11 24 8 14 -2 33 2 43 9 10 8 28 15 41 15 12
0 22 6 22 13 0 8 4 7 10 -3 9 -13 10 -13 10 0 0 13 1 13 10 0 8 -13 10 -13 10
2 0 12 5 15 16 11 9 -3 20 0 25 8 6 10 9 10 9 2 0 -7 7 -10 16 -6 13 5 13 7 2
14 -9 6 -2 9 20 9 17 0 35 0 38 -1 4 0 10 5 14 11 4 7 21 13 37 15 16 1 39 7
51 14 54 27 59 29 78 18 16 -9 17 -9 6 5 -10 13 -10 17 3 22 11 4 14 2 9 -7
-6 -9 -5 -9 8 0 8 7 18 10 21 6 4 -3 7 1 7 10 0 11 7 15 20 12 13 -2 23 2 27
11 5 13 7 13 14 2 7 -10 9 -10 9 3 0 12 7 15 28 12 21 -4 24 -2 12 6 -13 9
-13 11 3 12 37 3 42 5 39 19 -3 11 0 11 14 -1 12 -9 15 -9 10 -1 -6 11 5 17
27 13 4 0 7 6 7 14 0 8 3 14 8 14 22 -4 62 2 61 9 -1 4 -1 14 0 22 1 13 2 13
11 0 8 -12 10 -12 16 3 3 9 10 15 14 12 4 -2 15 4 25 15 10 11 23 20 29 20 6
0 2 -7 -8 -15 -11 -8 -15 -15 -9 -15 15 0 44 36 36 44 -5 4 -3 7 2 6 23 -5 46
1 40 10 -3 6 -1 11 4 11 6 1 16 3 21 4 6 1 15 3 20 4 6 0 10 8 10 16 0 9 6 12
15 8 10 -3 15 0 13 8 -2 8 7 15 20 17 12 2 32 17 44 33 16 21 24 26 30 17 5
-9 8 -5 8 10 0 20 14 28 42 23 4 0 4 7 1 16 -5 13 -2 15 12 10 15 -6 16 -5 5
8 -7 9 -9 15 -4 14 5 -1 18 0 29 1 14 1 16 3 6 7 -10 4 -5 10 15 20 16 7 21
11 10 8 -16 -4 -15 -2 5 20 13 13 32 25 42 25 10 0 15 5 12 10 -3 6 1 13 10
16 13 6 14 8 3 15 -9 6 -7 9 9 9 17 0 21 4 16 17 -4 10 -2 14 4 10 6 -4 17 1
24 10 8 9 9 14 3 10 -6 -3 -11 0 -11 7 0 8 6 12 14 9 8 -3 13 2 13 12 0 9 9
19 20 22 17 5 18 8 8 21 -11 13 -10 15 5 9 11 -4 17 -2 16 6 -3 19 12 48 22
41 8 -4 14 26 10 49 -1 5 3 6 9 2 9 -6 14 7 11 28 0 4 7 7 16 7 16 1 16 2 -2
17 -16 13 -17 15 -2 10 13 -5 17 -1 17 18 0 13 8 28 17 34 10 5 15 13 11 17
-4 4 0 13 9 19 15 11 16 15 3 31 -9 11 -10 15 -2 10 11 -7 17 5 13 28 -1 4 4
15 11 24 10 12 10 14 1 8 -7 -4 -13 -3 -13 3 0 5 5 11 11 13 12 4 17 28 18 86
1 30 5 41 13 36 7 -5 8 -3 3 6 -14 22 -14 69 0 64 15 -6 15 47 0 59 -6 4 -5
10 4 16 11 7 11 9 0 14 -10 4 -10 6 -1 6 6 1 12 6 12 12 0 5 -6 7 -12 3 -10
-5 -10 -4 -1 6 6 7 9 19 6 28 -5 11 -3 13 8 7 12 -8 12 -6 1 8 -8 9 -11 21 -7
27 3 5 1 10 -4 10 -6 0 -11 -5 -11 -12 0 -6 -3 -9 -6 -6 -3 4 0 16 6 28 8 15
8 20 1 16 -10 -7 -17 52 -11 93 1 8 -4 18 -12 22 -8 6 -9 9 -1 9 13 0 12 25
-2 37 -4 4 -5 3 -1 -4 3 -6 2 -14 -2 -17 -5 -3 -9 5 -9 17 -1 69 -4 88 -13 82
-6 -4 -10 6 -10 23 0 16 -7 35 -15 42 -8 7 -15 17 -15 23 0 6 6 3 13 -7 12
-16 14 -16 14 -3 0 9 -6 18 -14 21 -7 3 -13 14 -13 25 0 11 -7 26 -15 35 -9 8
-16 18 -15 21 0 3 0 15 0 28 0 18 -2 19 -10 7 -7 -11 -10 -6 -10 22 0 20 -5
40 -12 44 -7 5 -8 3 -3 -6 6 -9 4 -11 -4 -6 -7 5 -10 10 -7 13 3 3 1 14 -5 24
-7 14 -6 19 3 19 7 1 2 7 -12 15 -14 8 -21 14 -16 15 5 0 2 7 -5 16 -7 9 -14
26 -16 37 -2 12 -11 28 -21 36 -16 13 -16 13 1 8 21 -8 23 9 1 17 -10 4 -14
14 -11 26 4 15 0 20 -14 20 -10 0 -18 3 -18 8 4 24 -2 52 -11 47 -5 -3 -10 1
-10 9 0 9 -6 16 -14 16 -9 0 -12 7 -9 19 3 11 -3 24 -15 32 -10 8 -26 28 -35
44 -22 44 -56 77 -70 68 -7 -4 -5 2 3 12 8 10 10 16 4 12 -7 -4 -15 0 -18 9
-3 8 -2 12 4 9 6 -3 10 -3 11 2 0 4 3 17 5 28 3 11 6 41 6 67 1 35 4 45 14 41
8 -3 14 0 14 6 0 6 -5 11 -11 11 -8 0 -8 4 -2 13 16 19 17 261 2 251 -8 -5 -9
-3 -3 7 14 23 16 51 2 43 -7 -5 -8 -3 -2 7 12 19 12 33 0 41 -5 3 -11 24 -12
45 -1 21 -2 46 -3 55 -1 12 -6 15 -18 11 -16 -5 -16 -4 1 9 16 13 16 16 4 29
-8 8 -14 22 -12 32 1 9 -4 17 -12 17 -8 0 -13 3 -13 8 4 26 -3 72 -10 68 -10
-7 -24 41 -16 54 3 5 -4 14 -15 20 -11 6 -18 15 -15 21 4 5 -1 9 -9 9 -10 0
-16 9 -16 26 0 14 -4 23 -10 19 -6 -3 -10 1 -10 11 0 9 -7 22 -15 28 -9 6 -17
22 -18 35 -1 14 -10 27 -24 32 -13 5 -23 11 -23 14 0 4 4 3 10 0 6 -3 10 -1
10 4 0 6 -7 11 -16 11 -8 0 -13 4 -10 9 3 5 -1 11 -9 15 -8 3 -15 12 -15 20 0
10 -6 13 -15 10 -11 -5 -13 -2 -9 10 5 12 2 15 -10 10 -12 -4 -16 0 -16 15 0
12 -11 26 -27 35 -16 8 -35 24 -43 35 -8 12 -20 21 -27 21 -7 0 -12 3 -12 8 3
19 -2 33 -11 27 -6 -3 -10 -1 -10 5 0 7 -6 10 -14 7 -10 -4 -14 0 -11 14 3 13
-2 19 -15 19 -14 0 -18 5 -13 17 4 11 3 14 -6 9 -13 -8 -48 31 -43 48 2 5 -5
6 -14 2 -12 -5 -15 -2 -10 10 5 12 2 15 -10 10 -12 -5 -15 -2 -10 10 6 15 4
15 -11 3 -15 -12 -16 -12 -10 4 4 10 3 16 -2 12 -5 -3 -12 -1 -16 5 -4 6 -11
8 -16 4 -5 -3 -8 0 -7 8 2 7 -5 13 -14 13 -9 0 -20 4 -25 9 -5 5 -2 6 7 1 11
-6 12 -5 4 4 -6 7 -20 13 -32 14 -11 0 -19 4 -16 8 2 4 -5 10 -16 14 -11 4
-18 11 -15 16 3 5 -1 6 -9 3 -9 -3 -16 -2 -16 4 0 6 -11 9 -24 8 -17 -2 -23 1
-19 10 3 9 -2 14 -17 14 -14 0 -19 4 -14 13 5 7 0 6 -11 -3 -10 -8 -16 -10
-12 -3 5 7 -1 13 -15 15 -13 2 -22 9 -20 17 3 12 0 12 -12 1 -12 -9 -16 -9
-16 -1 0 7 -4 9 -10 6 -5 -3 -10 -2 -10 2 0 5 -17 8 -37 6 -33 -2 -34 -1 -13
6 24 9 24 9 3 11 -13 1 -27 4 -33 5 -5 1 -29 3 -52 4 -32 1 -39 4 -28 11 16
10 -20 14 -84 10 -20 -1 -26 2 -21 11 6 8 4 10 -6 3 -23 -14 -37 -13 -44 4 -5
13 -8 12 -21 -4 -9 -10 -13 -14 -10 -8 3 7 -1 15 -10 18 -10 4 -13 2 -8 -6 5
-7 3 -8 -7 -2 -20 12 -190 14 -182 1 4 -6 1 -7 -8 -2 -27 17 -76 16 -83 -1 -6
-16 -8 -16 -25 0 -16 15 -19 15 -24 1 -4 -8 -14 -15 -22 -15 -9 0 -13 5 -10
10 4 6 11 7 17 4 7 -4 8 -2 4 5 -6 9 -11 9 -23 -1 -17 -14 -30 -17 -95 -19
-31 -2 -45 -6 -41 -13 4 -6 -2 -4 -12 4 -11 9 -16 10 -11 3 5 -9 -1 -13 -21
-14 -66 -2 -115 -8 -121 -15 -4 -4 3 -4 16 -1 12 3 20 1 16 -4 -3 -5 -25 -9
-50 -9 -25 0 -43 -4 -40 -8 3 -5 0 -9 -7 -10 -53 -6 -82 -14 -89 -25 -6 -9 -8
-9 -8 1 0 6 -5 12 -11 12 -5 0 -7 -4 -4 -10 3 -5 -4 -11 -17 -12 -43 -2 -47
-3 -55 -12 -5 -5 -2 -6 6 -1 9 5 12 4 8 -2 -4 -6 -18 -11 -32 -12 -48 -3 -54
-4 -49 -13 5 -7 -1 -9 -38 -12 -7 -1 -17 -7 -21 -13 -4 -7 -22 -13 -39 -13
-25 0 -28 -3 -19 -14 9 -11 6 -13 -19 -10 -21 3 -30 -1 -30 -11 0 -8 -5 -15
-11 -15 -5 0 -7 5 -4 10 3 6 1 10 -4 10 -6 0 -11 -6 -11 -14 0 -9 -9 -13 -25
-11 -21 2 -23 0 -13 -12 6 -8 7 -13 2 -12 -5 1 -22 1 -39 0 -23 -1 -27 -3 -15
-11 13 -9 13 -10 0 -11 -8 -1 -19 -1 -23 0 -4 1 -10 -6 -13 -14 -4 -8 -14 -15
-25 -15 -10 0 -22 -6 -26 -14 -8 -15 -11 -16 -40 -16 -15 0 -16 -2 -3 -10 12
-8 9 -10 -13 -10 -19 0 -26 -4 -21 -12 5 -8 2 -9 -9 -5 -10 4 -16 2 -14 -5 1
-7 -4 -12 -11 -13 -7 0 -16 -6 -21 -13 -5 -8 -11 -13 -15 -13 -23 3 -30 0 -16
-9 12 -8 9 -10 -13 -10 -16 0 -30 -7 -34 -16 -3 -8 -12 -13 -19 -10 -8 3 -13
2 -11 -2 1 -4 -1 -7 -5 -7 -4 0 -15 -10 -23 -22 -9 -13 -25 -23 -36 -23 -23 0
-52 -24 -41 -35 4 -4 3 -6 -3 -5 -18 4 -55 -12 -49 -21 3 -5 -1 -6 -8 -4 -8 3
-24 -6 -36 -20 -13 -14 -28 -22 -37 -19 -9 4 -15 0 -15 -9 0 -8 -8 -14 -17
-13 -10 0 -17 -5 -15 -12 1 -8 -2 -11 -7 -7 -6 3 -20 -4 -32 -16 -16 -16 -21
-18 -16 -6 3 9 2 17 -3 17 -6 0 -10 -7 -10 -15 0 -8 -6 -15 -14 -15 -8 0 -16
-5 -18 -10 -2 -6 -14 -12 -27 -15 -14 -2 -28 -9 -31 -15 -4 -6 -16 -13 -26
-14 -10 -2 -18 -9 -16 -17 2 -10 0 -10 -13 1 -14 11 -16 11 -13 -1 2 -9 -4
-13 -14 -11 -12 2 -16 -2 -12 -12 4 -11 0 -13 -17 -9 -17 5 -21 3 -16 -9 3 -9
0 -15 -6 -15 -40 1 -67 -4 -62 -12 7 -12 -31 -25 -46 -15 -8 4 -9 3 -5 -4 9
-14 -40 -36 -57 -25 -7 4 -8 0 -4 -11 4 -10 2 -16 -6 -15 -6 1 -23 1 -37 -1
-23 -1 -23 -2 -5 -10 l20 -9 -20 -2 c-11 -1 -30 -2 -42 -3 -12 -1 -25 -5 -30
-10 -5 -5 -3 -6 5 -2 6 4 12 2 12 -4 0 -7 -12 -10 -27 -8 -16 1 -27 -2 -26 -8
1 -6 -3 -11 -10 -12 -7 -1 -29 -3 -50 -6 -27 -4 -40 -1 -44 9 -3 8 -13 15 -22
15 -10 0 -27 9 -39 20 -12 12 -22 16 -22 10 0 -6 -5 -8 -10 -5 -6 4 -8 11 -5
16 4 5 -3 9 -14 9 -11 0 -26 7 -35 15 -8 8 -25 15 -38 15 -18 0 -20 2 -8 10
12 8 11 10 -8 10 -12 0 -25 7 -28 15 -4 8 -12 15 -20 15 -8 0 -14 4 -14 10 0
5 -11 12 -25 16 -14 3 -22 10 -19 15 3 5 -4 9 -15 9 -12 0 -20 5 -19 12 2 7
-3 13 -9 14 -7 1 -17 2 -22 3 -5 0 -11 11 -15 24 -5 18 -8 20 -16 7 -8 -13
-10 -12 -10 3 0 9 -7 17 -15 17 -8 0 -15 7 -15 16 0 8 -4 13 -10 9 -5 -3 -19
4 -30 15 -11 11 -26 18 -32 14 -8 -5 -9 -2 -5 9 5 13 1 17 -14 17 -11 0 -17 5
-14 10 3 6 -3 10 -14 10 -15 0 -19 4 -14 17 4 10 2 14 -4 10 -16 -10 -43 2
-43 18 0 9 -8 12 -21 10 -15 -3 -19 0 -15 10 3 9 -1 15 -10 15 -9 0 -12 5 -8
13 5 8 2 8 -9 -2 -15 -12 -17 -11 -17 4 0 10 -3 15 -7 12 -3 -4 -12 2 -20 13
-7 11 -20 17 -28 14 -8 -4 -18 1 -21 10 -3 9 -15 16 -25 16 -11 0 -22 6 -25
14 -3 8 -12 12 -20 9 -8 -3 -14 1 -14 11 0 14 -25 22 -54 17 -5 -1 -4 4 2 12
10 12 8 15 -15 15 -15 0 -29 5 -31 11 -2 6 -8 9 -13 5 -5 -3 -9 -1 -9 5 0 6
-7 8 -15 5 -11 -5 -13 -2 -9 10 5 13 0 16 -25 16 -21 0 -31 5 -31 16 0 8 -4
13 -9 9 -5 -3 -13 0 -17 6 -4 8 -9 7 -15 -2 -7 -11 -9 -10 -9 4 0 16 -16 22
-49 18 -7 -2 -10 3 -6 8 6 10 -48 29 -67 23 -4 -1 -5 5 -2 13 4 10 0 13 -14
10 -11 -2 -23 3 -26 11 -3 8 -17 14 -32 14 -19 0 -25 4 -21 14 4 10 1 13 -8
10 -7 -3 -23 0 -35 6 -13 7 -20 8 -17 3 4 -5 0 -10 -7 -10 -9 0 -12 7 -8 15 4
11 1 14 -11 9 -9 -3 -17 -2 -17 3 0 5 -9 7 -20 5 -12 -2 -23 2 -27 10 -3 8
-16 15 -29 15 -13 0 -24 6 -24 13 0 9 -2 9 -9 -1 -7 -11 -9 -11 -14 0 -3 9
-17 13 -37 12 -22 -1 -30 2 -27 11 4 9 -9 13 -46 14 -76 4 -76 3 -74 14 1 6
-16 12 -38 15 -22 2 -43 9 -47 15 -5 8 -8 7 -8 -3 0 -11 -2 -12 -8 -3 -5 7
-20 14 -35 15 -15 1 -27 7 -27 13 0 5 -5 3 -10 -5 -6 -10 -10 -11 -10 -2 0 6
-5 12 -11 12 -5 0 -7 -6 -3 -12 6 -10 4 -10 -7 0 -7 6 -17 12 -22 12 -4 0 -5
-6 -2 -12 4 -7 0 -5 -8 4 -9 12 -25 17 -51 14 -23 -1 -44 3 -52 11 -8 8 -14
10 -14 5 0 -5 -9 -12 -20 -15 -13 -3 -18 -1 -13 6 4 7 0 8 -12 3 -14 -5 -16
-4 -7 7 9 11 8 13 -6 12 -9 0 -23 -4 -30 -9 -7 -4 -12 -2 -12 4 0 7 -6 8 -18
1 -10 -5 -24 -6 -31 -2 -18 11 -52 1 -45 -13 3 -6 0 -4 -8 4 -13 15 -58 22
-58 9 0 -4 -7 -10 -16 -13 -14 -5 -15 -4 -4 9 16 19 10 19 -16 1z m4746 -30
c0 -3 -4 -8 -10 -11 -5 -3 -10 -1 -10 4 0 6 5 11 10 11 6 0 10 -2 10 -4z
m1950 -3266 c0 -5 -5 -10 -11 -10 -5 0 -7 5 -4 10 3 6 8 10 11 10 2 0 4 -4 4
-10z m-470 -614 c0 -2 -8 -10 -17 -17 -16 -13 -17 -12 -4 4 13 16 21 21 21 13z
m-1040 -480 c0 -2 -7 -7 -16 -10 -8 -3 -12 -2 -9 4 6 10 25 14 25 6z m-963
-1321 c0 -8 -4 -12 -9 -9 -5 3 -6 10 -3 15 9 13 12 11 12 -6z m-2217 -919 c0
-11 -19 -15 -25 -6 -3 5 1 10 9 10 9 0 16 -2 16 -4z"/>
<path d="M8104 5425 c3 -23 12 -26 13 -5 1 11 -2 20 -7 20 -4 0 -7 -7 -6 -15z"/>
<path d="M8315 4819 c-4 -6 -5 -12 -2 -15 2 -3 7 2 10 11 7 17 1 20 -8 4z"/>
<path d="M705 3830 c3 -5 8 -10 11 -10 2 0 4 5 4 10 0 6 -5 10 -11 10 -5 0 -7
-4 -4 -10z"/>
<path d="M7970 3809 c0 -5 5 -7 10 -4 6 3 10 8 10 11 0 2 -4 4 -10 4 -5 0 -10
-5 -10 -11z"/>
<path d="M681 3144 c0 -11 3 -14 6 -6 3 7 2 16 -1 19 -3 4 -6 -2 -5 -13z"/>
<path d="M700 2951 c0 -6 4 -12 8 -15 5 -3 9 1 9 9 0 8 -4 15 -9 15 -4 0 -8
-4 -8 -9z"/>
<path d="M5055 1030 c-3 -5 -1 -10 4 -10 6 0 11 5 11 10 0 6 -2 10 -4 10 -3 0
-8 -4 -11 -10z"/>
<path d="M4915 1000 c-3 -6 1 -7 9 -4 18 7 21 14 7 14 -6 0 -13 -4 -16 -10z"/>
</g>
</svg>
